<svg viewBox="0 0 64 64" height="64" width="64" xmlns="http://www.w3.org/2000/svg">
	<rect x="2" y="2" width="46.5" height="61.4" fill="#fff" rx="3"/>
	<path fill="#1d83d4" d="M44 .5H5A4.5 4.5 0 00.5 5v54A4.5 4.5 0 005 63.5h28a1.5 1.5 0 000-3H5A1.5 1.5 0 013.5 59V5A1.5 1.5 0 015 3.5h39A1.5 1.5 0 0145.5 5v21a1.5 1.5 0 003 0V5A4.5 4.5 0 0044 .5z"/>
	<path fill="#888" d="M9 24.5h12a1.5 1.5 0 001.5-1.5v-9a1.5 1.5 0 00-.8-1.3l-6-3a1.5 1.5 0 00-1.4 0l-6 3a1.5 1.5 0 00-.8 1.3v9A1.5 1.5 0 009 24.5zm1.5-9.6l4.5-2.2 4.5 2.2v6.6h-9zM40 15.5H28a1.5 1.5 0 000 3h12a1.5 1.5 0 000-3zM33.5 32a1.5 1.5 0 00-1.5-1.5H9a1.5 1.5 0 100 3h23a1.5 1.5 0 001.5-1.5zM9 45.5a1.5 1.5 0 000 3h17a1.5 1.5 0 000-3z"/>
	<g transform="translate(30 30) scale(0.53)">
		<circle fill="#fff" cx="32" cy="32" r="30" stroke="#666" stroke-width="4"/>
		<path fill="#888" d="M31.2 9.6h3.6V18h-3.6zm0 26.4h3.6v19.2h-3.6zM24 9.6h4.8V18H24zM24 36h4.8v19.2H24z"/>
		<path fill="#d86600" d="M42.66 42.95c-1.63-6.53-8.43-5.85-9.51-10.25-.77-3.1 1.32-5.48 4.43-6.27a5.82 5.82 0 015.74 1.76l.03.03.13.16.08.1.08.14.02.02c.3.37.45.63.69.58.2-.05.31-.52.37-.87a12.36 12.36 0 00-15.29-13.54 12.49 12.49 0 00-9.04 15.04C22.6 38.8 31 40.3 35.55 42.55a3.69 3.69 0 01-.72 6.94h-.05l-.18.05c-.4.1-.5.05-.5.2 0 .11.26.25.42.33a6.06 6.06 0 008.14-7.12z"/>
	</g>
</svg>
